<?xml version="1.0" encoding="UTF-8"?><svg id="Layer_1" xmlns="http://www.w3.org/2000/svg" viewBox="0 0 379.35 155.91"><defs><style>.cls-1{fill:#a7a9ac;}.cls-2{fill:#1c75bc;}</style></defs><path class="cls-1" d="M98.09,128.64c3.2-9.76,3.79-19.35,1.94-29.04-1.31-6.86-3.68-13.42-5.72-16.55-1.85,1.25-2.87,3.08-3.57,5.1-1.59,4.62-1.52,9.42-1.51,14.22,.01,2.98,.12,5.98-.16,8.93-.35,3.69-2.06,7.01-3.61,10.32-1.6,3.42-2.78,6.94-2.97,10.73-.23,4.58,2.85,7.74,7.06,7.4,.29-1.35,.39-2.74,.88-3.98,.92-2.34,2.91-3.36,5.3-3.57,2.86-.25,5.26,.66,6.83,3.19,1.84,2.96,1.72,6.14,.91,9.35-1.48,5.87-6.36,10.02-12.66,10.89-4.15,.57-8.21,.33-12.08-1.38-5.95-2.63-8.99-7.48-10.01-13.7-.93-5.63-.03-11.1,1.7-16.5,1.28-3.99,1.47-8.11,.87-12.29-.84-5.91-2.56-11.49-5.06-16.92-1.58-3.44-2.43-7.22-3.6-10.85-.07-.22-.13-.45-.28-.94-3.75,7.17-5.74,14.6-6.44,22.37-.7,7.77,.16,15.41,2.73,23.13-2.02-1.31-3.3-2.92-4.41-4.66-2.74-4.33-4.15-9.14-4.88-14.16-1.58-10.79-.52-21.45,1.59-32.06,.37-1.88,.67-3.78,1.02-5.78-.36,.07-.66,.11-.95,.19-4.85,1.33-9.44,.19-13.65-2.04-10.47-5.56-20.58-11.75-29.64-19.45-2.28-1.93-4.22-4.3-6.1-6.65C.06,41.96-.23,39.56,.15,37.04c.61-4.01,1.93-7.78,3.55-11.47,2.98-6.81,6.86-13.04,12-18.43,2.54-2.67,5.29-5.12,8.86-6.34,4.49-1.54,8.82-.68,13.05,1.1,4.23,1.78,7.96,4.38,11.59,7.14,.29,.22,.59,.42,.86,.66,1.93,1.67,4,1.8,6.29,.76,2.93-1.33,5.87-2.64,8.87-3.78,4.01-1.52,8.21-2.51,12.46-2.65,2.92-.09,5.89,.66,8.81,1.23,4.33,.85,8.39,2.51,12.33,4.46,.18,.09,.37,.16,.54,.26,2.94,1.7,5.53,1.34,8.18-.86,3.91-3.25,8.18-5.99,13-7.78,6.97-2.6,13.08-1.31,18.48,3.8,6.83,6.46,11.7,14.22,15.01,22.95,1.1,2.91,1.8,5.97,2.53,9.01,.74,3.06-.4,5.7-2.25,8.09-3.04,3.94-6.89,7-10.88,9.88-7.62,5.49-15.52,10.57-23.86,14.89-4.13,2.14-8.56,3.33-13.29,2.18-.47-.11-.92-.25-1.63-.45,.22,1.19,.43,2.26,.62,3.33,.71,4.03,1.65,8.04,2.05,12.11,.5,5,.83,10.05,.73,15.08-.13,7.04-1.2,13.99-4.76,20.24-1.08,1.9-2.65,3.51-4.03,5.24-.23,.29-.59,.48-1.19,.95ZM49.57,41.28c-2.31-2.51-3.55-5.33-4.09-8.47-.77-4.46-.18-8.81,1.13-13.11,.13-.43,.13-1.08-.11-1.42-2.86-4-6.19-7.54-10.5-10.02-4.65-2.67-9.25-2.72-13.75,.37-6.81,4.68-11.54,11-14.76,18.55-1.16,2.72-1.88,5.55-2.13,8.49-.35,4.15,1.41,7.52,4.07,10.5,8.13,9.1,17.88,16.09,28.58,21.81,2.51,1.34,5.15,2.19,8.11,1.8,4.32-.56,7.24-3.89,6.89-8.12-.17-2.07-1.13-3.87-2.38-5.47-1.96-2.5-4.04-4.92-6.07-7.37-3.16-3.81-5.97-7.81-7.2-12.71-.89-3.58-.79-7.13,.28-10.66,.1,.36,.12,.72,.15,1.08,.43,5.66,2.29,10.77,5.96,15.13,1.16,1.38,2.53,2.59,3.85,3.83,3.21,3.02,6.52,5.94,8.66,9.99,1.36-3.42,.66-6.79-1.92-9.18-3.81-3.53-4.58-10.88-2.03-15.48,0,.45,0,.81,0,1.17,.13,4.52,1.31,8.56,5.02,11.56,.99,.8,1.83,1.81,2.64,2.81,1.53,1.89,2.02,4.05,1.55,6.46-.48,2.43-1.68,4.51-2.97,6.55-2.43,3.85-2.31,7.63,.5,11.2,.84,1.07,1.8,2.13,2.93,2.85,1.93,1.24,2.82,3.07,3.33,5.11,1.43,5.65,2.74,11.32,4.84,16.79,1.38,3.58,2.5,7.32,3.23,11.08,1.02,5.27,1.45,10.65-.09,15.92-1.17,4.02-1.76,8.1-1.64,12.25,.08,2.55,.39,5.16,1.1,7.6,1.3,4.49,4.41,7.42,8.93,8.69,5.08,1.43,10.08,1.68,14.79-1.3,4-2.53,5.8-7.12,4.41-11.26-.7-2.1-2.36-3.08-4.74-2.8-1.96,.23-3.09,1.49-3.19,3.74-.05,1.07,.14,2.15,.23,3.26-2.2,.82-4.49,1.07-6.77,.65-4.01-.73-6.35-3.93-6.49-8.42-.15-4.56,1.34-8.67,3.11-12.77,1.26-2.9,2.54-5.84,3.3-8.89,1.19-4.75,.56-9.61,.18-14.43-.33-4.09-1.05-8.17-.37-12.28,.85-5.11,3.09-9.33,7.62-12.19,1.34-.85,2.57-1.98,3.62-3.17,3.15-3.56,3.37-7.66,.83-11.68-.62-.98-1.21-2-1.74-3.03-2.34-4.51-1.8-8,1.78-11.63,.62-.63,1.26-1.25,1.93-1.83,1.55-1.36,2.78-2.98,3.28-4.97,.57-2.28,.89-4.61,1.27-6.66,2.32,4.51,1.54,11.84-2.6,15.37-2.43,2.06-2.8,6.38-1.56,8.76,.55-.86,.98-1.85,1.68-2.59,2.77-2.92,5.55-5.83,8.45-8.62,3.89-3.74,6.52-8.15,7.63-13.43,.36-1.73,.57-3.49,.85-5.25,1.6,4.94,.91,10.8-1.78,15.88-2.13,4.03-5.17,7.37-8.04,10.86-1.65,2.02-3.33,4.07-4.59,6.34-2.51,4.53-.52,9.31,4.32,10.86,2.3,.73,4.62,.65,6.87-.23,5.1-1.99,9.66-4.97,14.12-8.08,6.26-4.37,12.18-9.13,17.26-14.89,3.7-4.21,4.87-8.85,3.5-14.31-1.02-4.04-2.71-7.72-4.92-11.2-3.1-4.88-6.83-9.16-11.75-12.31-4.02-2.57-8.12-2.77-12.38-.65-3.99,1.98-7.03,5.05-9.92,8.35-1.45,1.65-2.37,3.27-1.21,5.43,.04,.07,.06,.15,.08,.23,1.18,5.08,1.45,10.12-.62,15.06-.67,1.6-1.56,3.07-2.84,4.25,.24-.91,.62-1.75,.85-2.63,.24-.93,.5-1.91,.47-2.85-.35-8.55-3.6-15.54-11.16-20.05-3.87-2.31-8.16-3.41-12.63-3.69-5.67-.35-11.36-.6-16.98,.54-7.62,1.55-13.7,5.23-17.09,12.58-1.78,3.86-3.09,7.81-2.34,12.13,.24,1.36,.75,2.66,1.19,4.19Zm4.88,33.44c-3.42,14.31-5.46,28.45-.45,42.66,.13-.27,.16-.56,.13-.83-.79-5.63-.6-11.26,.15-16.87,.89-6.65,2.68-13.07,5.23-19.28,.12-.29,.18-.76,.03-.99-1.22-1.92-2.67-3.62-5.09-4.69Zm47.93,.01c-2.21,.89-3.49,2.51-4.75,4.18-.45,.59-.43,1.07-.19,1.76,1.23,3.61,2.56,7.19,3.54,10.87,1.75,6.64,2.54,13.42,2.21,20.31-.09,1.91-.33,3.82-.5,5.72,5.18-14.28,3.2-28.49-.3-42.84Z"/><g><path class="cls-2" d="M122.64,154.31c8.76-3.39,11.75-8.96,11.75-31.07v-34.65c0-7.77-.6-9.46-9.76-9.96v-1.39h23.9v1.39c-8.17,.5-8.96,2.19-8.96,9.96v38.54c0,19.92-5.58,24.2-16.43,28.78l-.5-1.59Z"/><path class="cls-2" d="M165.26,123.54c0,9.96,4.78,12.55,10.36,12.55,3.98,0,8.76-1.99,12.95-6.17v-21.91c0-5.87-1.39-6.27-4.98-6.97l-3.78-.6v-1.09c4.28-.1,11.05-1.09,13.54-1.79v32.46c0,4.98,1.09,5.48,4.98,5.78l2.99,.2v1.39c-4.08,.5-8.36,1.99-12.25,3.39l-.5-.5v-7.67c-2.59,1.89-5.08,4.08-8.56,5.88-2.89,1.69-4.98,2.19-7.57,2.19-5.97,0-11.95-3.09-11.95-14.14v-18.42c0-5.87-1.49-6.37-3.58-6.97l-3.19-.7v-1c2.29-.2,9.66-1.39,11.85-1.89-.3,1.99-.3,5.48-.3,12.95v13.04Z"/><path class="cls-2" d="M204.1,138.18c7.17-.5,8.46-1.89,8.46-8.17v-19.62c0-6.67-.4-7.07-6.57-8.26v-1.29c4.18-.9,8.27-1.89,11.45-4.18v8.07c10.26-7.17,12.95-7.67,15.83-7.67,3.68,0,8.46,2.79,10.46,8.07,11.65-7.77,14.54-8.07,16.53-8.07,7.27,0,12.05,5.08,12.05,12.05v20.41c0,7.27,1,8.27,6.97,8.66v1.39h-20.21v-1.39c6.97-.4,8.46-1.69,8.46-8.86v-15.53c0-6.27-1.59-12.35-10.36-12.35-4.18,.2-8.66,2.79-12.65,5.77,.1,1.39,.3,2.49,.3,3.09v19.22c0,6.77,1.09,8.27,6.97,8.66v1.39h-20.41v-1.39c7.47-.4,8.66-1.89,8.66-8.66v-16.13c0-6.47-1.89-11.95-10.56-11.95-4.68,0-8.96,3.48-12.15,5.87v22.21c0,6.77,1,8.27,6.47,8.66v1.39h-19.72v-1.39Z"/><path class="cls-2" d="M305.57,97.25c.6-.2,1.59-.2,2.59-.2,10.46,0,19.32,8.07,19.32,19.92,0,13.84-11.65,23.7-24.99,23.7-4.08,0-9.26-.5-14.04-2.79v-54.37c0-6.37-.4-7.07-7.17-8.17v-1.1c4.58-.5,9.86-2.29,11.95-3.39v30.87l12.35-4.48Zm-12.35,29.87c0,1.69,.1,2.49,.6,4.08,.7,2.39,5.08,6.57,12.25,6.57,9.56,0,15.63-7.57,15.63-18.62,0-10.26-6.77-17.92-16.93-17.92-4.68,0-9.16,1.1-11.55,2.49v23.4Z"/><path class="cls-2" d="M379.35,118.07c0,15.04-12.35,22.6-21.91,22.6-13.14,0-22.11-9.96-22.11-20.81,0-16.13,13.54-22.8,21.91-22.8,12.55,0,22.11,9.46,22.11,21.01Zm-37.74-1.49c0,12.75,6.67,21.81,17.23,21.81,8.36,0,14.44-5.38,14.44-18.82,0-9.66-5.88-20.11-16.93-20.11-9.16,0-14.74,7.17-14.74,17.13Z"/></g><g><path class="cls-1" d="M155.2,90.89c6.01-.27,6.47-1.4,6.47-6.67v-26.57c-.13-5.21-.4-6.34-6.01-6.61v-1h16.15c9.28,0,12.88,3.4,12.88,9.21s-5.61,8.54-8.61,9.28v.13c5.87,.87,11.55,4.34,11.55,10.75,0,4.61-2.34,7.88-6.41,10.08-3.4,1.74-7.61,2.34-12.68,2.34h-13.35v-.93Zm14.89-22.63c7.41,0,10.55-3.14,10.55-8.41,0-2.94-1.07-8.48-10.88-8.48-2.14,0-3.2,.07-3.67,.13-.47,.07-.8,.2-.8,1.47v15.29h4.81Zm-4.81,1.4v14.89c0,4.41,.87,5.74,6.14,5.74,6.54,0,11.68-2.54,11.68-9.88s-5.34-10.75-13.08-10.75h-4.74Z"/><path class="cls-1" d="M212.2,92.56c-.13,0-1.47-.53-2.14-1.2-.8-.87-1.07-1.67-1.47-3.14-2.6,2-5.61,4.34-8.08,4.34-4.61,0-7.74-3.47-7.74-7.61,0-3,2.07-5.14,6.68-6.54,3.4-1,7.61-2.6,9.14-3.54,0-3.27-.07-9.08-6.07-9.08-1.07,.07-4.67,.33-5.81,5.67-.13,.47-.53,1.13-1.47,1.13s-2-.93-2-2.27c0-1,.8-1.8,1.87-2.4,1.67-1.14,6.14-3.87,9.41-4.61,3.27,0,7.41,2.14,7.41,8.01v14.35c0,2.74,1,3.8,2.4,3.8,1.13,0,2.2-.4,2.94-.87l.6,1.14-5.67,2.8Zm-3.6-16.02c-1.4,.8-5.61,2.4-7.08,3-3,1.14-4.81,2.4-4.81,4.87,0,3.47,2.8,5.27,5.21,5.27,2.27,0,5.27-1.67,6.68-3.4v-9.75Z"/><path class="cls-1" d="M220.14,90.89c4.07-.27,4.74-1.2,4.74-5.41v-13.08c0-4.87-.47-5.27-4.61-5.74v-.8c2.74-.53,5.41-1.33,7.81-2.8v8.14h.13c1.6-3.6,5.21-7.88,8.48-7.88,2,0,3.27,1.74,3.27,2.8,0,1.27-1.33,2.47-2.34,2.47-.27,0-.47-.07-.6-.33-1-.93-1.54-1.4-2.8-1.4-1.8,0-4.41,3-6.14,7.88v10.88c0,4.14,.6,5.01,5.94,5.27v.93h-13.88v-.93Z"/></g></svg>